
<svg width="32" height="32" viewBox="0 0 512 512" xmlns="http://www.w3.org/2000/svg" fill="#c3a65a">
  <path d="M469.3 352.4l-15.9-15.9c3.8-4.4 5.7-10.1 5.7-15.7V144c0-8.8-7.2-16-16-16H324.1c0-5.6-2-12.3-5.7-16.7l-16-15.9C3.2 95.6 0 129.8 0 161v180c0 31.2 3.2 65.4 39.4 100.7l15.9-15.9c4.4-3.8 10.1-5.7 15.7-5.7h71.2c-12.2 46.4-46.4 100.7-106.6 100.7H328c8.8 0 16-1.9 21.6-5.7l15.9-15.9c3.8-4.4 5.7-10.1 5.7-15.7V48C160 0 40 160 40 352c0 88.8 120 208 208 208s208-119.2 208-208c0-92-120-208-208-208V352c0 8.8 1.9 16.1 5.7 21.6l15.9 15.9z"/>
</svg>
